<svg height="639pt" viewBox="-19 -80 639.99949 639" width="639pt" xmlns="http://www.w3.org/2000/svg"><path d="m479.996094 136.527344c-4.789063.003906-9.574219.292968-14.324219.859375-12.90625-42.042969-51.695313-70.765625-95.671875-70.859375-10.945312-.011719-21.8125 1.804687-32.160156 5.371094-25.609375-55.375-86.304688-85.472657-145.886719-72.339844-59.582031 13.136718-101.996094 65.957031-101.953125 126.96875.007812 10.542968 1.316406 21.039062 3.902344 31.257812-35.035156 4.996094-65.484375 26.636719-81.71875 58.082032-16.230469 31.441406-16.246094 68.800781-.03125 100.25-17.507813 34.121093-16.011719 74.890624 3.960937 107.628906 19.976563 32.742187 55.535157 52.734375 93.886719 52.78125h369.996094c40.929687.085937 79.0625-20.734375 101.125-55.207032 22.054687-34.472656 24.980468-77.820312 7.75-114.941406 7.292968-15.609375 11.09375-32.621094 11.125-49.851562-.066406-66.246094-53.753906-119.925782-120-120zm-259.996094-120c45.921875.183594 86.9375 28.769531 103 71.792968.96875 2.609376 2.984375 4.699219 5.5625 5.765626 2.574219 1.058593 5.480469 1 8.007812-.167969 10.46875-4.871094 21.878907-7.390625 33.429688-7.390625 38.050781.0625 70.808594 26.871094 78.410156 64.148437 1.089844 5.417969 6.363282 8.921875 11.777344 7.832031 29.398438-5.941406 59.917969 1.628907 83.136719 20.621094 23.210937 18.996094 36.671875 47.402344 36.671875 77.398438.027344 9.496094-1.320313 18.949218-3.996094 28.0625-.429688-.582032-.9375-1.082032-1.378906-1.640625-1.722656-2.203125-3.511719-4.324219-5.371094-6.394531-1.160156-1.296876-2.300781-2.617188-3.511719-3.855469-1.660156-1.699219-3.421875-3.28125-5.179687-4.882813-2.996094-2.730468-6.136719-5.304687-9.398438-7.710937-1.402344-.996094-2.75-2.148438-4.199218-3.128907-2.003907-1.308593-4-2.457031-6-3.65625-1.640626-1.003906-3.253907-2.003906-4.941407-2.851562-2-1.003906-4-2-6.003906-2.890625-1.996094-.890625-3.847656-1.738281-5.820313-2.519531-1.964843-.78125-3.835937-1.472656-5.792968-2.128906-2.261719-.761719-4.550782-1.433594-6.871094-2.0625-1.792969-.488282-3.570312-1-5.390625-1.390626-2.75-.621093-5.542969-1.070312-8.359375-1.488281-1.488281-.222656-3.003906-.519531-4.472656-.679687-4.417969-.507813-8.863282-.773438-13.3125-.78125-4.789063.003906-9.574219.292968-14.324219.859375-12.90625-42.042969-51.695313-70.765625-95.671875-70.859375-10.945312-.011719-21.8125 1.804687-32.160156 5.371094-23.339844-51.097657-77.074219-81.203126-132.839844-74.429688-1.558594.179688-3.066406.46875-4.609375.699219-3.378906.523437-6.71875 1.132812-10 1.898437-1.699219.390625-3.371094.832032-5 1.289063-3.160156.882812-6.269531 1.890625-9.332031 3.003906-1.507813.535156-3 1.050781-4.527344 1.648437-3.652344 1.480469-7.210938 3.140626-10.691406 4.929688-.75.378906-1.539063.703125-2.28125 1.101562-4.15625 2.25-8.1875 4.726563-12.082032 7.417969-1.085937.75-2.097656 1.589844-3.15625 2.371094-2.769531 2-5.46875 4.140625-8.058593 6.367187-1.257813 1.089844-2.460938 2.222657-3.679688 3.351563-2.320312 2.164063-4.558593 4.398437-6.699219 6.722656-1.125 1.207031-2.242187 2.398438-3.3125 3.636719-2.296874 2.683594-4.472656 5.46875-6.550781 8.332031-.558593.769531-1.226562 1.46875-1.777343 2.261719-2.128907-8.496094-3.21875-17.21875-3.242188-25.972656.074219-60.722656 49.28125-109.925782 110-110zm-200 250c-.207031-45.785156 34.203125-84.339844 79.722656-89.320313-.800781 2-1.421875 4.003907-2.128906 6-.621094 1.742188-1.324219 3.453125-1.863281 5.230469-.730469 2.363281-1.269531 4.789062-1.859375 7.191406-.417969 1.707032-.933594 3.367188-1.277344 5.097656-.5625 2.773438-.914062 5.609376-1.289062 8.441407-.191407 1.429687-.496094 2.828125-.640626 4.289062-.433593 4.308594-.664062 8.679688-.664062 13.097657.007812 10.542968 1.316406 21.042968 3.902344 31.261718-26.921875 3.867188-51.433594 17.625-68.742188 38.601563-3.402344-9.597657-5.152344-19.707031-5.160156-29.890625zm459.996094 190h-369.996094c-31.957031-.027344-61.507812-16.984375-77.65625-44.5625s-16.46875-61.644532-.855469-89.523438c.238281-.273437.460938-.5625.664063-.867187 11.363281-19.714844 29.804687-34.375 51.578125-40.996094.703125-.207031 1.410156-.398437 2.128906-.597656 2.671875-.742188 5.390625-1.335938 8.152344-1.824219.898437-.160156 1.789062-.351562 2.703125-.488281 3.503906-.535157 7.039062-.867188 10.585937-1 3.195313-.097657 6.15625-1.714844 7.957031-4.355469 1.800782-2.640625 2.238282-5.980469 1.164063-8.992188-20.152344-56.894531 9.347656-119.390624 66.082031-139.988281 56.726563-20.59375 119.457032 8.414063 140.496094 64.988281 1.265625 3.777344 4.796875 6.335938 8.78125 6.367188 1.636719.148438 3.28125-.113281 4.789062-.769531 10.46875-4.871094 21.878907-7.390625 33.429688-7.390625 38.050781.0625 70.808594 26.871094 78.410156 64.148437 1.089844 5.417969 6.363282 8.921875 11.777344 7.832031 10.621094-2.1875 21.535156-2.566406 32.28125-1.121093 1.210938.152343 2.402344.359375 3.597656.550781 3.042969.5 6.039063 1.128906 9.003906 1.890625 1.128907.300781 2.289063.550781 3.410157.878906 3.703125 1.09375 7.347656 2.402344 10.898437 3.921875 1.121094.476563 2.171875 1.058594 3.261719 1.570313 2.507813 1.1875 5 2.472656 7.367187 3.859375 1.34375.769531 2.671876 1.570312 4.003907 2.410156 2.476562 1.597656 4.878906 3.320312 7.214843 5.128906.820313.636719 1.679688 1.21875 2.492188 1.878906 2.945312 2.46875 5.746094 5.101563 8.386719 7.890626.78125.820312 1.535156 1.667968 2.28125 2.519531 2.402343 2.660156 4.660156 5.453125 6.753906 8.359375.289063.390625.601563.769531.878906 1.171875 2.542969 3.660156 4.847657 7.484375 6.890625 11.449219 16.007813 30.980468 14.691406 68.074218-3.476562 97.839843-18.171875 29.773438-50.558594 47.898438-85.4375 47.820313zm0 0"/></svg>