<svg height="638pt" viewBox="-20 -29 638.67144 638" width="638pt" xmlns="http://www.w3.org/2000/svg"><path d="m478.90625 139.472656c-4.785156.003906-9.5625.289063-14.3125.863282-12.890625-41.988282-51.628906-70.683594-95.550781-70.777344-10.933594-.007813-21.789063 1.804687-32.121094 5.363281-25.578125-55.304687-86.195313-85.363281-145.699219-72.246094-59.511718 13.117188-101.867187 65.875-101.824218 126.808594.003906 10.527344 1.316406 21.015625 3.890624 31.21875-56.695312 8.65625-97.203124 59.472656-92.988281 116.667969 4.207031 57.203125 51.71875 101.542968 109.070313 101.796875 5.515625 0 9.988281-4.464844 9.988281-9.988281 0-5.515626-4.472656-9.984376-9.988281-9.984376-49.238282.207032-89.460938-39.257812-90.191406-88.492187-.734376-49.230469 38.304687-89.878906 87.523437-91.132813 3.191406-.097656 6.144531-1.710937 7.945313-4.347656 1.804687-2.632812 2.234374-5.976562 1.164062-8.984375-19.484375-56.632812 10.023438-118.429687 66.316406-138.871093 56.292969-20.445313 118.578125 8.015624 139.972656 63.957031.972657 2.609375 2.980469 4.695312 5.554688 5.757812s5.472656 1 7.996094-.164062c10.460937-4.863281 21.859375-7.382813 33.390625-7.382813 38 .066406 70.722656 26.835938 78.3125 64.066406 1.085937 5.414063 6.359375 8.917969 11.765625 7.824219 37.308594-7.539062 75.65625 6.789063 98.890625 36.9375 23.226562 30.152344 27.304687 70.886719 10.503906 105.035157-16.796875 34.15625-51.546875 55.796874-89.609375 55.796874h-9.988281c-5.515625 0-9.988281 4.46875-9.988281 9.984376 0 5.523437 4.472656 9.988281 9.988281 9.988281h9.988281c66.191406 0 119.847656-53.65625 119.847656-119.847657 0-66.191406-53.65625-119.847656-119.847656-119.847656zm0 0"/><path d="m199.257812 514v-239.699219c0-16.546875-13.414062-29.960937-29.960937-29.960937s-29.960937 13.414062-29.960937 29.960937v239.699219c0 16.550781 13.414062 29.960938 29.960937 29.960938s29.960937-13.410157 29.960937-29.960938zm-39.949218 0v-239.699219c0-5.515625 4.472656-9.988281 9.988281-9.988281s9.988281 4.472656 9.988281 9.988281v239.699219c0 5.519531-4.472656 9.984375-9.988281 9.984375s-9.988281-4.464844-9.988281-9.984375zm0 0"/><path d="m279.15625 548.953125v-299.621094c0-16.546875-13.414062-29.960937-29.960938-29.960937-16.546874 0-29.960937 13.414062-29.960937 29.960937v299.621094c0 16.550781 13.414063 29.964844 29.960937 29.964844 16.546876 0 29.960938-13.414063 29.960938-29.964844zm-39.949219 0v-299.621094c0-5.515625 4.472657-9.988281 9.988281-9.988281 5.515626 0 9.988282 4.472656 9.988282 9.988281v299.621094c0 5.519531-4.472656 9.988281-9.988282 9.988281-5.515624 0-9.988281-4.46875-9.988281-9.988281zm0 0"/><path d="m359.058594 518.992188v-239.699219c0-16.546875-13.417969-29.960938-29.964844-29.960938s-29.960938 13.414063-29.960938 29.960938v239.699219c0 16.550781 13.414063 29.960937 29.960938 29.960937s29.964844-13.410156 29.964844-29.960937zm-39.949219 0v-239.699219c0-5.515625 4.46875-9.984375 9.984375-9.984375s9.988281 4.46875 9.988281 9.984375v239.699219c0 5.519531-4.472656 9.988281-9.988281 9.988281s-9.984375-4.46875-9.984375-9.988281zm0 0"/><path d="m438.957031 548.953125v-299.621094c0-16.546875-13.417969-29.960937-29.960937-29.960937-16.546875 0-29.964844 13.414062-29.964844 29.960937v299.621094c0 16.550781 13.417969 29.964844 29.964844 29.964844 16.542968 0 29.960937-13.414063 29.960937-29.964844zm-39.949219 0v-299.621094c0-5.515625 4.472657-9.988281 9.988282-9.988281 5.511718 0 9.984375 4.472656 9.984375 9.988281v299.621094c0 5.519531-4.472657 9.988281-9.984375 9.988281-5.515625 0-9.988282-4.46875-9.988282-9.988281zm0 0"/></svg>