<svg height="638pt" viewBox="-20 -79 638.67144 638" width="638pt" xmlns="http://www.w3.org/2000/svg"><path d="m478.90625 136.140625c-4.785156.007813-9.5625.292969-14.3125.863281-12.890625-41.988281-51.628906-70.679687-95.550781-70.773437-10.933594-.011719-21.789063 1.804687-32.121094 5.363281-25.578125-55.304688-86.195313-85.367188-145.699219-72.246094-59.511718 13.117188-101.867187 65.871094-101.824218 126.804688.003906 10.53125 1.316406 21.019531 3.890624 31.222656-56.695312 8.65625-97.203124 59.46875-92.988281 116.667969 4.207031 57.203125 51.71875 101.542969 109.070313 101.796875 5.515625 0 9.988281-4.46875 9.988281-9.988282 0-5.515624-4.472656-9.988281-9.988281-9.988281-49.238282.210938-89.460938-39.257812-90.191406-88.492187-.734376-49.226563 38.304687-89.875 87.523437-91.128906 3.191406-.097657 6.144531-1.710938 7.945313-4.351563 1.804687-2.632813 2.234374-5.972656 1.164062-8.980469-20.128906-56.820312 9.339844-119.238281 65.996094-139.808594 56.664062-20.570312 119.308594 8.40625 140.324218 64.902344.96875 2.609375 2.984376 4.695313 5.554688 5.757813 2.574219 1.066406 5.46875 1 7.996094-.164063 10.449218-4.863281 21.835937-7.382812 33.359375-7.394531 38 .070313 70.722656 26.835937 78.3125 64.070313 1.085937 5.414062 6.359375 8.914062 11.765625 7.824218 37.308594-7.539062 75.65625 6.785156 98.890625 36.933594 23.226562 30.152344 27.304687 70.886719 10.503906 105.039062-16.796875 34.15625-51.546875 55.792969-89.609375 55.792969h-9.988281c-5.515625 0-9.988281 4.472657-9.988281 9.988281 0 5.519532 4.472656 9.988282 9.988281 9.988282h9.988281c66.191406 0 119.847656-53.660156 119.847656-119.847656 0-66.191407-53.65625-119.851563-119.847656-119.851563zm0 0"/><path d="m287.027344 199.914062c-1.890625-2.425781-4.796875-3.84375-7.871094-3.847656h-79.898438c-4.300781 0-8.117187 2.753906-9.480468 6.832032l-39.949219 119.847656c-1.011719 3.046875-.5 6.394531 1.375 9 1.878906 2.601562 4.890625 4.148437 8.105469 4.144531h77.679687l-25.746093 127.839844c-.9375 4.6875 1.574218 9.382812 5.996093 11.203125 4.425781 1.8125 9.515625.242187 12.144531-3.75l118.085938-179.773438c2.003906-3.078125 2.160156-7 .410156-10.222656s-5.128906-5.226562-8.796875-5.222656h-67.105469l16.867188-67.492188c.746094-2.980468.074219-6.136718-1.816406-8.558594zm33.539062 96.027344-79.574218 121.148438 17.980468-89.21875c.589844-2.929688-.164062-5.972656-2.0625-8.289063-1.890625-2.316406-4.726562-3.664062-7.714844-3.667969h-76.035156l33.296875-99.875h59.925781l-16.890624 67.5c-.738282 2.980469-.070313 6.140626 1.820312 8.5625 1.890625 2.425782 4.792969 3.839844 7.871094 3.839844zm0 0"/><path d="m370.359375 320.910156c-4.222656 7.429688-41.265625 73.167969-41.265625 104.867188 0 27.582031 22.355469 49.9375 49.9375 49.9375 27.578125 0 49.9375-22.355469 49.9375-49.9375 0-31.699219-37.042969-97.4375-41.269531-104.867188-1.921875-2.914062-5.179688-4.664062-8.667969-4.664062-3.492188 0-6.75 1.75-8.671875 4.664062zm8.671875 134.828125c-16.546875 0-29.960938-13.410156-29.960938-29.960937 0-17.65625 17.355469-54.820313 29.960938-78.960938 12.601562 24.140625 29.964844 61.304688 29.964844 78.960938 0 16.550781-13.417969 29.960937-29.964844 29.960937zm0 0"/></svg>